<?xml version="1.0" encoding="UTF-8"?>
<svg id="Layer_2" data-name="Layer 2" xmlns="http://www.w3.org/2000/svg" viewBox="0 0 2048 2048">
  <defs>
    <style>
      .cls-1 {
        fill: #dcfce7;
      }

      .cls-2 {
        fill: #2563eb;
      }

      .cls-3 {
        fill: #fefefe;
      }

      .cls-4 {
        fill: #16a34a;
      }
    </style>
  </defs>
  <path class="cls-3" d="M2048,2048H0V0h2048M1120.2,442.3c2.78,2.16,1.57,7.53,8.69,4.3,2.77-1.26,41.68-40.3,43.08-43.01.79-1.54,1.33-2.46,0-3.96l-95.98-97.97c-35.03-28.81-79.78-24.21-111.99,5.99-125.99,127.72-255.35,252.39-379.43,381.82-21.23,32.42-20.97,71.53,3.83,101.78,24.65,30.07,61.16,56.97,86.9,86.89-54.54,62.37-144.36,108.5-114.41,206.36,13.49,44.08,62.03,88.8,106.81,98.99,44.48,10.12,83.33-2.95,116.57-32.53,39.5-35.16,96.57-91.2,130.78-131.01,88.41-102.89-36.86-247.12-143.41-217.34-6.79,1.9-29.47,9.84-25.41,18.57,11.65,7.52,30.76,40.33,41.07,45.02,5.6,2.55,16.28-2.66,22.92-2.62,28.45.18,67.57,38.11,72.02,65.41,3.19,19.57-.68,32.13-13.04,47.1-38.93,47.19-95.99,90.19-137.26,136.48-60.23,44.11-145.86-44.5-97.59-103.58,23.45-28.7,58.45-54.41,82.98-82.96l2.96-1,4.09,1.95,81.84,82.03,44.91-46.95c-33.42-37-69.65-71.54-104.81-106.95-5.01-5.04-9.96-9.93-14.99-14.99-22.1-22.25-67.92-60.88-83.99-83.85-7.38-10.56-8.27-22.01-.47-32.47,88.92-90.33,179.39-179.2,269.28-268.2,28.09-27.82,60.26-65.67,89.81-90.01,9.95-8.2,18.35-11.87,30.93-4.86,28.48,24.92,53.63,58.48,83.31,81.56ZM1328.7,553.46c-9.7-9.82-75.74-76.8-81.3-77.66-4.51-.7-36.43,40.57-45.65,43.64l-.86,2.91,199.75,199.92c7.64,10.91,7.49,19.6.88,30.89l-110.24,109.71c-4.99,1.36-24.44-9.26-31.49-11.74-68.45-24.11-132.83-19.33-183.87,35.99-11.43-73.16,33.19-141.84,9.92-213.7-32.48-100.3-167.74-131.57-253.7-82.03-5.58,64.76,13.31,140.3,64.02,183.79,35.18,30.17,79.98,40.5,125.55,42.29l3.27,4.72-3.13,298.57c-1.32,2.02-2.7,4.14-5.52,3.86-12.99-1.32-74.83-74.19-90.25-85.61l-48.02,45.87v4.08s38.07,35.84,38.07,35.84c59.54,65.49,101.48,102.73,177.85,32.11,112.56-123.88,250.57-235.9,360.68-360.67,21.32-24.16,29.85-48.08,20.5-80.56-8.5-29.52-77.8-91.09-102.5-116.28,61.76-64.69,166.5-129.32,105.51-232.38-32.77-55.38-101.34-90.92-164.83-67.7-40.92,14.96-126.13,110.4-159.49,146.21-31.96,34.31-58.59,61.45-54.89,112.89,3.9,54.28,60.17,116.07,113.37,126.39,31.64,6.14,68.6-1.96,92.36-24.46-10.34-6.72-31.09-36.04-40-40.03-4.26-1.91-19.28,4.71-26.82,5.14-54.2,3.05-100.67-66.05-62.03-113.98,38.86-48.22,98.87-93.86,139.94-141.79,60.78-46.82,147.93,36.7,103.9,93.91l-90.96,89.86Z"/>
  <path class="cls-4" d="M1328.7,553.46c14.24,14.42,29.24,30.94,43.96,45.96,24.7,25.19,94,86.76,102.5,116.28,9.35,32.48.83,56.39-20.5,80.56-110.11,124.77-248.12,236.78-360.68,360.67-76.36,70.62-118.3,33.38-177.85-32.11l-38.05-35.84v-4.08s48.01-45.87,48.01-45.87c15.43,11.41,77.26,84.28,90.25,85.61,2.82.29,4.2-1.84,5.52-3.86l3.13-298.57-3.27-4.72c-45.57-1.79-90.36-12.12-125.55-42.29-50.71-43.48-69.61-119.03-64.02-183.79,85.96-49.55,221.21-18.28,253.7,82.03,23.27,71.86-21.34,140.54-9.92,213.7,51.03-55.32,115.41-60.1,183.87-35.99,7.04,2.48,26.5,13.1,31.49,11.74l110.24-109.71c6.61-11.29,6.75-19.98-.88-30.89l-199.75-199.92.86-2.91c9.22-3.07,41.14-44.34,45.65-43.64,5.56.86,71.59,67.83,81.3,77.66ZM1048.95,745.27c12.65-90.03-88.84-145.97-167.72-125.79-4.94,81.88,56.07,152.61,139.77,151.75-18.27-45.2-56.31-73.8-89.9-106.89,11.17,1.07,26.29,5.85,37.31,10.64,33.67,14.64,58.53,42.01,80.54,70.29ZM1074.95,968.05v110.89l177.79-174.83c-45.45-20.46-92.34-23.74-131.86,9.96-10.97,9.35-43.81,41.22-45.93,53.98Z"/>
  <path class="cls-4" d="M1120.2,442.3c-29.68-23.09-54.82-56.64-83.31-81.56-12.57-7.01-20.97-3.34-30.93,4.86-29.55,24.34-61.72,62.19-89.81,90.01-89.88,89-180.36,177.87-269.28,268.2-7.8,10.46-6.91,21.91.47,32.47,16.07,22.97,61.89,61.59,83.99,83.85,5.03,5.06,9.98,9.94,14.99,14.99,35.16,35.41,71.39,69.95,104.81,106.95l-44.91,46.95-81.84-82.03-4.09-1.95-2.96,1c-24.54,28.55-59.53,54.26-82.98,82.96-48.28,59.08,37.35,147.69,97.59,103.58,41.27-46.29,98.32-89.29,137.26-136.48,12.36-14.97,16.23-27.53,13.04-47.1-4.45-27.3-43.57-65.24-72.02-65.41-6.64-.04-17.32,5.17-22.92,2.62-10.3-4.69-29.42-37.5-41.07-45.02-4.06-8.73,18.62-16.67,25.41-18.57,106.55-29.78,231.82,114.45,143.41,217.34-34.21,39.81-91.28,95.86-130.78,131.01-33.24,29.58-72.09,42.65-116.57,32.53-44.78-10.19-93.32-54.91-106.81-98.99-29.95-97.86,59.87-143.99,114.41-206.36-25.74-29.92-62.26-56.82-86.9-86.89-24.8-30.26-25.06-69.36-3.83-101.78,124.08-129.43,253.45-254.1,379.43-381.82,32.21-30.2,76.96-34.8,111.99-5.99l95.98,97.97c1.33,1.51.79,2.42,0,3.96-1.39,2.71-40.3,41.75-43.08,43.01-7.12,3.23-5.91-2.14-8.69-4.3Z"/>
  <path class="cls-2" d="M1372.66,599.41c-14.72-15.01-29.71-31.54-43.96-45.96l90.96-89.86c44.04-57.21-43.12-140.73-103.9-93.91-41.07,47.93-101.07,93.57-139.94,141.79-38.63,47.93,7.83,117.03,62.03,113.98,7.54-.42,22.56-7.05,26.82-5.14,8.92,3.99,29.66,33.32,40,40.03-23.76,22.5-60.72,30.6-92.36,24.46-53.21-10.32-109.47-72.11-113.37-126.39-3.7-51.44,22.93-78.58,54.89-112.89,33.36-35.81,118.57-131.25,159.49-146.21,63.49-23.21,132.06,12.32,164.83,67.7,60.99,103.06-43.75,167.69-105.51,232.38Z"/>
  <path class="cls-3" d="M1074.95,968.05c2.12-12.76,34.96-44.62,45.93-53.98,39.52-33.7,86.41-30.42,131.86-9.96l-177.79,174.83v-110.89Z"/>
  <path class="cls-1" d="M1048.95,745.27c-22.01-28.28-46.87-55.65-80.54-70.29-11.02-4.79-26.14-9.56-37.31-10.64,33.59,33.08,71.63,61.68,89.9,106.89-83.7.87-144.72-69.87-139.77-151.75,78.88-20.18,180.37,35.76,167.72,125.79Z"/>
</svg>